<svg t="1655132763169" class="icon" viewBox="0 0 1024 1024" version="1.1" xmlns="http://www.w3.org/2000/svg" p-id="18150" width="300" height="300"><path d="M512 955.733333c-6.826667 0-13.653333-1.706667-18.773333-6.826666l-105.813334-105.813334H129.706667c-52.906667 0-95.573333-42.666667-95.573334-95.573333V208.213333c0-52.906667 42.666667-95.573333 95.573334-95.573333h764.586666c52.906667 0 95.573333 42.666667 95.573334 95.573333v537.6c0 52.906667-42.666667 95.573333-95.573334 95.573334H634.88L529.066667 947.2c-3.413333 5.12-10.24 8.533333-17.066667 8.533333zM129.706667 163.84C105.813333 163.84 85.333333 184.32 85.333333 208.213333v537.6c0 23.893333 20.48 44.373333 44.373334 44.373334h269.653333c6.826667 0 13.653333 3.413333 18.773333 6.826666l95.573334 95.573334 95.573333-95.573334c5.12-5.12 11.946667-6.826667 18.773333-6.826666h269.653334c23.893333 0 44.373333-20.48 44.373333-44.373334V208.213333c0-23.893333-20.48-44.373333-44.373333-44.373333h-768z" fill="#333333" p-id="18151"></path><path d="M534.186667 479.573333h-46.08c-13.653333 0-25.6-11.946667-25.6-25.6s11.946667-25.6 25.6-25.6h46.08c13.653333 0 25.6 11.946667 25.6 25.6s-10.24 25.6-25.6 25.6zM761.173333 479.573333H716.8c-13.653333 0-25.6-11.946667-25.6-25.6s11.946667-25.6 25.6-25.6h44.373333c13.653333 0 25.6 11.946667 25.6 25.6s-11.946667 25.6-25.6 25.6zM308.906667 479.573333h-44.373334c-13.653333 0-25.6-11.946667-25.6-25.6s11.946667-25.6 25.6-25.6h44.373334c13.653333 0 25.6 11.946667 25.6 25.6s-11.946667 25.6-25.6 25.6z" fill="#333333" p-id="18152"></path><path d="M745.813333 680.96h-614.4c-37.546667 0-68.266667-30.72-68.266666-68.266667V209.92c0-37.546667 30.72-68.266667 68.266666-68.266667h614.4c37.546667 0 68.266667 30.72 68.266667 68.266667v402.773333c0 39.253333-30.72 68.266667-68.266667 68.266667z" fill="#333333" opacity=".3" p-id="18153"></path></svg>